<?xml version="1.0" standalone="no"?>
<!DOCTYPE svg PUBLIC "-//W3C//DTD SVG 20010904//EN"
 "http://www.w3.org/TR/2001/REC-SVG-20010904/DTD/svg10.dtd">
<svg version="1.0" xmlns="http://www.w3.org/2000/svg"
 width="1280.000000pt" height="1069.000000pt" viewBox="0 0 1280.000000 1069.000000"
 preserveAspectRatio="xMidYMid meet">
<g transform="translate(0.000000,1069.000000) scale(0.100000,-0.100000)"
fill="#000000" stroke="none">
<path d="M6205 10679 c-44 -4 -136 -13 -205 -19 -511 -47 -1029 -209 -1465
-458 -308 -176 -585 -391 -865 -672 -558 -557 -902 -1204 -1024 -1920 -44
-256 -51 -351 -50 -640 1 -296 16 -440 70 -669 125 -528 393 -1011 813 -1465
56 -60 70 -80 60 -87 -8 -5 -799 -9 -1776 -9 l-1763 0 0 -585 0 -585 2525 0
2525 0 0 548 0 548 -87 60 c-345 234 -646 542 -846 865 -389 630 -463 1526
-186 2236 192 491 584 961 1064 1275 208 137 429 237 676 308 378 107 801 128
1199 59 251 -43 443 -106 675 -219 279 -136 478 -281 725 -529 231 -231 366
-410 493 -651 201 -380 286 -767 274 -1240 -10 -376 -74 -667 -216 -981 -198
-435 -562 -847 -1013 -1144 l-58 -38 0 -548 0 -549 2525 0 2525 0 0 585 0 585
-1767 2 c-1368 2 -1768 6 -1768 15 0 7 47 65 105 129 719 799 970 1672 789
2739 -100 586 -367 1153 -767 1630 -103 122 -355 378 -477 484 -609 531 -1292
835 -2055 915 -367 38 -483 43 -655 25z"/>
<path d="M0 585 l0 -585 6400 0 6400 0 0 585 0 585 -6400 0 -6400 0 0 -585z"/>
</g>
</svg>
