<?xml version="1.0" standalone="no"?>
<!DOCTYPE svg PUBLIC "-//W3C//DTD SVG 20010904//EN"
 "http://www.w3.org/TR/2001/REC-SVG-20010904/DTD/svg10.dtd">
<svg version="1.0" xmlns="http://www.w3.org/2000/svg"
 width="942.000000pt" height="1280.000000pt" viewBox="0 0 942.000000 1280.000000"
 preserveAspectRatio="xMidYMid meet">
<g transform="translate(0.000000,1280.000000) scale(0.100000,-0.100000)"
fill="#000000" stroke="none">
<path d="M5325 12776 c-34 -12 -74 -31 -91 -43 -47 -34 -125 -121 -194 -218
-58 -82 -65 -97 -77 -169 -29 -179 -59 -490 -98 -991 -61 -798 -81 -986 -131
-1255 -58 -310 -58 -308 -58 -520 1 -143 8 -272 25 -425 28 -259 33 -656 11
-760 -24 -111 -66 -230 -88 -252 -35 -35 -103 -32 -147 7 -35 30 -109 193
-280 615 -36 88 -97 235 -136 327 -38 92 -93 240 -121 330 -105 335 -143 437
-196 534 -133 243 -152 300 -239 713 -99 466 -146 593 -302 818 -48 70 -104
153 -125 186 -34 56 -41 61 -120 94 -144 60 -186 73 -240 73 -109 -1 -169 -52
-258 -219 -30 -57 -70 -121 -89 -143 -27 -32 -32 -45 -28 -71 38 -216 48 -293
67 -477 41 -418 61 -512 170 -791 115 -292 129 -339 149 -504 6 -49 18 -148
26 -219 31 -257 95 -458 360 -1131 114 -290 195 -529 195 -577 0 -21 -9 -56
-20 -78 -11 -22 -20 -43 -20 -49 0 -5 20 -21 44 -35 64 -37 67 -51 56 -302
-26 -606 -22 -799 15 -935 31 -112 32 -110 -24 -200 -28 -46 -64 -122 -81
-168 l-31 -84 17 -67 c15 -63 15 -74 0 -150 -18 -86 -57 -199 -82 -237 -12
-19 -23 -23 -68 -23 -30 0 -83 9 -118 20 -34 11 -69 20 -77 20 -7 0 -120 109
-250 243 -448 459 -500 519 -701 807 -156 224 -246 317 -433 441 -226 151
-289 178 -462 194 -120 10 -238 35 -298 62 l-58 26 -124 -17 c-292 -41 -457
-115 -530 -240 -13 -23 -33 -75 -44 -116 l-21 -75 22 -18 c56 -44 176 -122
338 -217 232 -137 307 -188 392 -268 86 -81 134 -144 182 -240 20 -39 46 -78
59 -85 12 -8 69 -40 127 -72 150 -82 169 -100 225 -207 43 -81 65 -109 171
-213 127 -125 197 -218 265 -355 38 -76 58 -143 100 -335 42 -195 109 -287
384 -533 252 -225 322 -309 374 -447 46 -122 131 -284 241 -460 105 -170 194
-316 260 -430 32 -54 89 -124 193 -234 183 -192 236 -268 267 -382 40 -150 61
-262 67 -364 6 -110 -3 -144 -96 -387 -66 -172 -71 -211 -70 -536 0 -316 2
-300 -86 -720 -20 -96 -34 -179 -32 -185 9 -29 112 201 151 338 50 176 59 252
57 497 -1 128 3 254 9 288 6 32 35 135 65 227 31 92 62 206 70 252 19 107 19
313 0 466 -8 68 -11 123 -6 128 5 5 42 -3 87 -19 106 -37 222 -41 256 -7 24
25 29 22 -67 48 -163 45 -285 129 -535 369 l-175 168 -125 226 c-210 381 -516
911 -659 1142 l-47 75 -56 5 c-65 6 -76 15 -173 130 -173 208 -280 421 -345
693 -23 98 -34 124 -62 155 -18 20 -58 79 -88 131 -45 76 -75 112 -158 190
-130 120 -154 158 -160 257 -5 81 -19 93 -37 33 -5 -19 -14 -40 -18 -46 -14
-21 -48 -15 -70 13 -11 14 -40 34 -64 45 -23 10 -43 23 -43 28 0 6 12 40 27
75 25 61 25 67 12 103 -22 56 -48 51 -79 -15 -37 -80 -89 -84 -133 -9 -14 23
-61 87 -106 142 -44 55 -90 121 -103 147 -18 38 -30 50 -64 63 -23 9 -89 56
-146 106 -101 88 -132 106 -351 209 -79 37 -107 73 -107 135 1 51 17 79 70
121 l43 34 91 -6 c113 -8 251 8 376 43 89 25 98 26 177 14 180 -26 305 -81
593 -260 192 -121 251 -167 286 -227 14 -24 34 -46 45 -49 23 -8 36 -31 79
-143 41 -108 109 -193 276 -346 71 -66 199 -192 284 -280 323 -335 465 -472
513 -495 68 -33 188 -28 267 11 59 29 323 254 385 328 60 71 85 150 49 150
-16 0 -44 -27 -164 -157 -38 -41 -70 -65 -103 -78 -66 -25 -72 -15 -48 76 11
41 29 134 41 207 24 159 44 240 76 307 39 84 54 95 132 95 88 0 125 12 172 54
21 19 94 61 162 94 l123 59 165 -8 c91 -4 166 -7 167 -8 1 -1 19 -15 39 -33
35 -31 40 -32 109 -30 68 2 80 -1 172 -44 313 -147 445 -224 632 -373 47 -38
126 -94 174 -125 74 -47 92 -65 108 -101 18 -40 25 -46 89 -70 55 -21 78 -37
108 -72 74 -90 88 -101 148 -118 32 -9 130 -55 216 -101 133 -71 308 -144 347
-144 21 0 11 32 -22 65 -32 32 -63 42 -180 60 -26 4 -55 22 -97 59 -64 57
-159 109 -230 125 -31 7 -51 18 -65 38 -42 59 -123 127 -215 180 -141 83 -190
123 -264 216 -81 102 -106 120 -311 227 -374 194 -468 229 -888 330 l-168 40
-36 -27 c-32 -24 -47 -28 -119 -32 l-83 -3 -68 -67 c-37 -37 -86 -75 -108 -86
-53 -25 -166 -33 -187 -12 -12 12 -17 70 -28 284 -15 316 -9 625 16 768 23
137 23 317 0 425 -29 140 -128 420 -236 675 -173 406 -190 455 -190 539 0 70
-3 79 -65 205 -80 163 -88 190 -125 435 -43 289 -58 358 -180 826 -137 524
-176 745 -168 954 4 97 9 131 27 172 42 96 118 144 228 144 128 0 198 -70 325
-328 51 -103 120 -228 154 -278 73 -110 95 -176 129 -389 45 -281 116 -496
256 -776 130 -261 164 -347 193 -489 23 -113 34 -142 110 -295 97 -196 206
-467 206 -516 1 -67 18 -121 54 -174 21 -29 59 -111 85 -182 61 -164 83 -205
132 -253 46 -44 124 -75 172 -67 18 3 69 19 113 35 189 71 374 84 534 39 110
-31 133 -33 150 -12 20 24 -32 72 -99 92 -56 16 -132 15 -397 -3 -62 -5 -93
-3 -98 4 -4 7 0 61 9 122 19 141 19 462 0 750 -23 345 -29 610 -16 755 11 121
59 419 117 718 31 165 41 325 54 857 13 555 29 727 87 920 85 287 210 430 375
430 62 0 150 -28 193 -61 39 -32 85 -132 106 -234 17 -84 19 -151 19 -1005 0
-871 -6 -1111 -31 -1368 -10 -97 -9 -123 4 -175 54 -211 62 -361 47 -877 -13
-447 -7 -606 26 -767 13 -66 20 -82 47 -103 18 -13 59 -50 93 -82 59 -56 63
-58 148 -73 48 -9 156 -41 239 -71 211 -78 366 -128 373 -121 12 12 -26 56
-71 83 -25 14 -155 65 -290 113 -135 48 -250 92 -257 99 -9 9 1 12 46 12 l57
0 23 53 c74 166 120 375 171 777 55 427 69 484 213 831 22 52 45 122 52 155 6
32 49 174 95 314 128 391 142 456 215 958 49 339 88 567 113 667 11 45 28 77
122 223 42 66 85 92 151 92 29 0 65 -5 81 -11 117 -43 213 -186 279 -414 27
-94 29 -110 29 -280 -1 -168 -3 -192 -38 -360 -24 -117 -41 -229 -47 -320 -10
-158 -19 -190 -84 -302 -61 -106 -68 -145 -60 -327 7 -173 1 -216 -73 -511
-43 -171 -45 -190 -53 -380 -10 -242 -29 -352 -140 -800 -89 -363 -114 -486
-129 -634 -16 -153 -17 -150 39 -216 27 -32 57 -74 65 -92 17 -34 17 -35 66
-28 l49 7 74 -65 c41 -36 152 -123 248 -195 211 -158 218 -165 218 -202 0 -51
26 -99 53 -100 5 0 7 10 5 23 -2 17 2 23 23 25 23 3 29 -4 61 -75 84 -186 112
-324 112 -558 0 -213 -10 -290 -109 -795 -55 -278 -59 -303 -89 -575 -60 -522
-153 -1061 -236 -1353 -22 -77 -70 -220 -108 -319 -118 -304 -134 -362 -193
-735 -50 -322 -70 -403 -164 -673 -92 -267 -113 -350 -120 -480 -3 -55 -12
-232 -21 -393 -16 -278 -16 -653 -1 -668 9 -10 37 16 49 46 6 14 14 95 19 180
5 95 16 194 30 255 20 89 22 134 25 415 4 367 6 381 105 625 89 219 116 304
143 450 35 186 45 253 56 400 17 203 27 232 143 434 108 186 131 271 252 916
140 748 136 720 145 1055 7 245 11 307 28 365 61 221 82 317 101 470 30 251
42 463 40 710 l-2 220 85 170 c81 162 190 390 401 845 168 361 384 808 408
842 12 18 41 56 64 83 23 28 47 70 54 95 7 25 41 113 76 195 77 187 90 230
115 395 25 165 25 199 0 348 -33 197 -84 309 -170 371 -81 59 -196 67 -267 18
-21 -14 -60 -41 -87 -60 l-49 -34 -72 -209 c-92 -267 -160 -440 -240 -615 -81
-178 -126 -257 -253 -443 -57 -83 -140 -205 -184 -271 -70 -103 -93 -129 -167
-185 l-85 -65 -32 -100 c-18 -55 -53 -166 -79 -247 -53 -166 -104 -279 -161
-354 -42 -55 -110 -116 -156 -140 -26 -13 -32 -12 -75 10 -134 68 -159 169
-107 425 14 69 43 227 64 351 21 124 55 302 74 395 38 180 151 848 186 1100
53 379 75 504 120 695 93 397 117 538 131 770 15 260 -9 503 -62 645 -43 115
-195 287 -299 340 -69 35 -140 34 -211 -3 -43 -23 -166 -90 -176 -97 -1 0 -7
-34 -13 -75 -12 -75 -48 -230 -113 -480 -38 -144 -65 -300 -122 -689 -69 -469
-106 -607 -271 -1002 -154 -370 -176 -462 -239 -969 -38 -312 -65 -475 -96
-590 -19 -66 -27 -81 -73 -123 -74 -68 -133 -102 -151 -87 -39 33 -90 245
-105 441 -6 83 -8 301 -4 569 7 472 1 606 -41 855 -37 216 -38 247 -20 401 38
334 45 461 56 1019 9 435 9 623 0 750 -20 306 -69 459 -172 546 -81 68 -109
85 -171 103 -72 21 -109 19 -183 -8z m3866 -2716 c81 -137 127 -329 113 -477
-26 -294 -164 -680 -299 -843 -68 -81 -88 -121 -140 -270 -61 -175 -85 -224
-154 -318 -129 -174 -144 -205 -257 -522 -41 -116 -102 -250 -202 -450 -79
-157 -148 -289 -153 -294 -9 -10 -32 10 -361 302 -155 136 -198 180 -198 199
0 35 26 79 88 153 69 81 95 136 177 380 84 246 138 361 208 437 30 32 92 110
139 173 46 64 115 149 153 190 179 197 241 323 450 910 89 249 124 329 178
410 51 76 73 89 149 90 l67 0 42 -70z"/>
<path d="M8686 9044 c-12 -30 -6 -65 12 -71 9 -3 43 -26 75 -50 63 -46 97 -55
97 -24 0 35 -51 83 -166 154 -7 4 -15 0 -18 -9z"/>
<path d="M8241 8196 c60 -56 240 -198 246 -193 7 8 -19 74 -43 108 -44 64
-174 140 -238 139 -17 -1 -11 -10 35 -54z"/>
<path d="M7720 7361 c0 -19 75 -87 133 -120 33 -19 64 -45 73 -62 14 -28 87
-89 106 -89 30 0 -16 103 -68 154 -53 52 -244 143 -244 117z"/>
<path d="M5165 11109 c-78 -11 -85 -15 -85 -37 0 -18 12 -20 188 -25 149 -4
202 -9 259 -26 40 -12 75 -21 78 -21 18 0 -29 59 -62 77 -74 41 -226 54 -378
32z"/>
<path d="M7030 10646 c0 -23 66 -72 122 -90 60 -19 186 -41 193 -34 3 3 3 13
-1 22 -11 29 -86 64 -184 85 -52 12 -103 24 -112 27 -12 3 -18 0 -18 -10z"/>
<path d="M3215 10400 c-13 -22 -68 -40 -161 -55 -125 -21 -186 -51 -138 -69
76 -29 327 39 414 112 l25 21 -67 1 c-37 0 -70 -5 -73 -10z"/>
<path d="M5210 9808 c-104 -12 -110 -15 -82 -38 36 -30 102 -34 225 -16 83 12
121 14 147 6 42 -12 66 3 37 25 -42 31 -181 41 -327 23z"/>
<path d="M5020 9672 c-84 -17 -85 -18 -60 -34 44 -30 111 -37 338 -40 l223 -3
-34 32 c-48 44 -91 54 -247 58 -102 3 -156 0 -220 -13z"/>
<path d="M6790 9572 c0 -28 13 -35 115 -67 102 -31 201 -73 246 -106 36 -25
43 -21 29 17 -25 66 -70 91 -237 133 -66 17 -128 33 -137 37 -11 4 -16 1 -16
-14z"/>
<path d="M6660 9440 c0 -17 6 -32 13 -34 6 -2 55 -17 109 -35 53 -17 112 -31
132 -31 21 0 64 -14 105 -35 37 -19 82 -35 98 -35 32 0 59 22 49 39 -11 17
-166 72 -320 112 -83 22 -159 42 -168 45 -15 4 -18 -1 -18 -26z"/>
<path d="M3564 9280 c-22 -5 -100 -31 -173 -60 -73 -28 -146 -54 -163 -57 -29
-6 -30 -7 -13 -20 30 -21 126 -16 199 11 65 25 221 110 232 127 6 11 -24 10
-82 -1z"/>
<path d="M3480 9109 c-60 -11 -169 -68 -189 -98 l-16 -24 45 7 c75 11 151 38
199 70 76 52 65 65 -39 45z"/>
<path d="M5115 8281 c-44 -4 -61 -10 -63 -22 -2 -14 16 -17 130 -22 73 -3 182
-13 241 -23 59 -9 111 -14 114 -10 13 13 -43 57 -91 71 -50 15 -207 18 -331 6z"/>
<path d="M6395 8044 c40 -31 95 -54 197 -83 137 -39 202 -64 244 -96 40 -30
45 -17 18 42 -36 75 -126 113 -327 138 -153 19 -158 19 -132 -1z"/>
<path d="M4039 7925 c-30 -17 -117 -58 -193 -90 -138 -58 -231 -111 -231 -130
0 -17 68 -17 132 0 34 9 117 48 185 87 157 88 180 98 240 98 35 0 50 4 55 15
8 23 1 27 -70 40 -63 12 -65 12 -118 -20z"/>
<path d="M4489 7906 c-14 -30 -3 -47 51 -81 53 -33 111 -53 272 -95 81 -22
175 -54 210 -72 35 -18 66 -34 71 -36 14 -7 7 31 -13 63 -30 48 -116 88 -290
134 -166 43 -219 62 -262 93 l-28 19 -11 -25z"/>
<path d="M4877 6803 c-14 -14 -6 -43 16 -57 26 -16 109 -37 307 -77 283 -57
382 -91 561 -192 40 -22 105 -47 166 -62 126 -31 154 -43 337 -149 175 -101
218 -118 379 -152 148 -31 155 -34 401 -152 188 -89 204 -99 270 -166 69 -69
229 -176 243 -162 11 11 -25 75 -73 126 -47 50 -97 84 -269 185 -55 33 -120
78 -145 101 -33 30 -60 45 -100 54 -30 7 -131 37 -225 66 -142 45 -306 90
-401 109 -11 3 -54 32 -95 65 -103 84 -152 112 -197 110 -64 -3 -71 -1 -87 30
-14 26 -21 30 -59 30 -54 0 -112 20 -310 110 -186 84 -278 110 -388 110 -70 0
-83 3 -114 26 -19 15 -51 32 -71 40 -40 14 -135 19 -146 7z"/>
<path d="M4388 6034 c-31 -9 -20 -20 55 -57 248 -123 473 -405 583 -732 28
-84 34 -118 34 -184 0 -69 5 -94 30 -155 23 -55 33 -99 40 -177 20 -226 6
-417 -31 -426 -17 -5 -19 -16 -19 -89 0 -57 6 -100 19 -136 16 -45 20 -93 25
-323 4 -148 10 -339 15 -423 4 -84 5 -234 1 -335 -9 -221 -17 -245 -120 -351
-38 -40 -70 -76 -70 -79 0 -12 60 -7 88 7 156 81 223 420 175 887 -19 189 -22
499 -9 919 l9 285 -28 145 c-19 103 -26 165 -23 215 4 63 2 76 -25 130 -17 33
-63 148 -104 255 -113 297 -127 325 -180 351 -31 15 -61 44 -103 99 -73 96
-105 123 -176 149 -56 22 -154 34 -186 25z"/>
<path d="M5510 2095 c-63 -7 -177 -18 -252 -24 -75 -6 -195 -20 -265 -30 -212
-32 -377 -44 -517 -38 -112 4 -142 9 -194 31 -67 28 -97 32 -108 14 -12 -19
69 -84 123 -99 60 -17 160 -17 483 -2 163 7 325 22 448 39 170 24 199 26 245
14 49 -11 62 -10 182 20 158 38 218 39 350 4 95 -25 115 -27 398 -31 252 -4
301 -2 315 10 10 8 36 24 60 36 84 42 28 57 -74 19 -91 -34 -279 -30 -544 12
-243 38 -467 47 -650 25z"/>
<path d="M3880 2000 c0 -23 31 -68 71 -104 91 -83 255 -135 450 -143 116 -5
129 -4 175 17 l49 23 -50 8 c-27 4 -94 12 -147 19 -173 20 -357 80 -483 155
-64 39 -65 39 -65 25z"/>
<path d="M5980 1730 c-39 -39 -22 -49 96 -57 79 -6 138 8 118 27 -13 12 -142
50 -170 50 -13 0 -33 -9 -44 -20z"/>
<path d="M5046 1635 c-46 -16 -71 -39 -62 -54 11 -17 68 -13 152 10 41 11 92
20 112 18 53 -3 62 -1 62 15 0 7 -14 16 -31 20 -55 11 -193 6 -233 -9z"/>
<path d="M5908 1583 c-35 -5 -36 -30 -3 -43 17 -6 40 -4 76 6 48 14 56 14 86
0 37 -18 98 -21 108 -7 6 11 -7 15 -85 30 -75 14 -149 19 -182 14z"/>
<path d="M5085 1523 c-24 -6 -45 -22 -45 -35 0 -12 155 0 190 15 24 10 24 10
-15 18 -44 9 -99 9 -130 2z"/>
<path d="M5954 1480 c-17 -6 -37 -17 -44 -25 -11 -13 2 -15 109 -15 66 0 121
3 121 8 0 29 -125 51 -186 32z"/>
<path d="M5041 1367 c-25 -12 -49 -43 -41 -50 3 -3 52 1 110 9 58 7 108 13
113 14 4 0 7 4 7 10 0 26 -146 40 -189 17z"/>
<path d="M5945 1316 c-17 -12 -10 -14 61 -18 43 -3 81 -3 84 0 3 2 -4 10 -14
18 -25 18 -106 18 -131 0z"/>
<path d="M5044 1165 c-13 -32 49 -71 93 -60 33 8 29 16 -21 48 -49 31 -64 33
-72 12z"/>
<path d="M5930 1125 c0 -23 46 -65 70 -65 26 0 26 29 0 58 -24 26 -70 30 -70
7z"/>
</g>
</svg>
